# xmcd
#
# Track frame offsets:
#	150
#	16562
#	33065
#	45247
#	58492
#	75140
#	91692
#	107640
#	123105
#	139927
#	154300
#	168732
#	183625
#	200035
#
# Disc length: 2878
#
# Revision: 3
# Processed by: cddbd v1.5.1PL0 Copyright (c) Steve Scherf et al.
# Submitted via: CDex 1.40Release
# Normalized: r1:DSETVAR1,TDELIM( - ),TSWAP
#
DISCID=aa0b3c0e
DTITLE=Various Artist - Today's Country at its Bestq
DYEAR=1998
DGENRE=Country
TTITLE0=Sawyer Brown - 01 Treat her right
TTITLE1=John Berry - 02 Think about it All the time
TTITLE2=Mark Chesnutt - 03 It's a Little Too Late
TTITLE3=Clint Black - 04 Life Gets Away
TTITLE4=Kenny Chsney - 05 A Chance
TTITLE5=Alabama - 06 The Maker Said Take Her
TTITLE6=Aaron Tippin - 07 Everything, I Own
TTITLE7=Mindy McCready - 08 The Thousand Angels
TTITLE8=John Anderson - 09 Mississippi Moon
TTITLE9=Lari White - 10 Ready, Willing and Able
TTITLE10=Lonestar - 11 Runnin' Away With My Heart
TTITLE11=Lorrie Morgan - 12 I didn't know my Own Strength
TTITLE12=Boy Howdy - 13 She'd Give Anything
TTITLE13=Martina McBride - 14 PHones are Ringin' All Over Town
EXTD=YEAR: 1998 ID3G: 2
EXTT0=
EXTT1=
EXTT2=
EXTT3=
EXTT4=
EXTT5=
EXTT6=
EXTT7=
EXTT8=
EXTT9=
EXTT10=
EXTT11=
EXTT12=
EXTT13=
PLAYORDER=
